<?xml version="1.0" encoding="UTF-8" standalone="no"?>
<!DOCTYPE svg PUBLIC "-//W3C//DTD SVG 1.1//EN" "http://www.w3.org/Graphics/SVG/1.1/DTD/svg11.dtd">
<svg width="100%" height="100%" viewBox="0 0 640 633" version="1.1" xmlns="http://www.w3.org/2000/svg" xmlns:xlink="http://www.w3.org/1999/xlink" xml:space="preserve" xmlns:serif="http://www.serif.com/" style="fill-rule:evenodd;clip-rule:evenodd;stroke-linejoin:round;stroke-miterlimit:1.41421;">
    <g transform="matrix(1,0,0,1,-303.768,-84.7387)">
        <g transform="matrix(0.8,0,0,0.8,-25.3826,-47.532)">
            <g transform="matrix(-0.978998,0,0,0.985388,1377.2,70.4121)">
                <g id="cog1">
                    <path id="gear1" d="M633.77,100.107C596.89,95.076 559.491,95.076 522.612,100.107L510.148,182.758C479.963,189.103 450.827,199.639 423.599,214.055L360.577,158.7C329.071,178.399 300.422,202.282 275.425,229.688L319.351,300.962C300.333,325.099 284.83,351.777 273.299,380.209L189.208,378.052C177.817,413.262 171.323,449.853 169.906,486.811L249.668,513.358C250.716,543.994 256.1,574.33 265.662,603.474L199.849,655.524C213.903,689.771 232.602,721.949 255.427,751.165L333.705,720.564C354.328,743.363 378.08,763.163 404.26,779.383L387.52,861.285C420.443,878.544 455.586,891.252 491.974,899.056L532.139,825.625C562.688,829.919 593.694,829.919 624.243,825.625L664.408,899.056C700.795,891.252 735.938,878.544 768.862,861.285L752.121,779.383C778.302,763.163 802.053,743.363 822.677,720.564L900.954,751.165C923.779,721.949 942.478,689.771 956.533,655.524L890.72,603.474C900.281,574.33 905.666,543.994 906.713,513.358L986.476,486.811C985.059,449.853 978.564,413.262 967.173,378.052L883.082,380.209C871.551,351.777 856.049,325.099 837.031,300.962L880.956,229.688C855.96,202.282 827.311,178.399 795.805,158.7L732.783,214.055C705.554,199.639 676.419,189.103 646.234,182.758L633.77,100.107Z" style="fill:rgb(255,116,0);"/>
                </g>
            </g>
        </g>
    </g>
</svg>
