<?xml version="1.0" encoding="UTF-8" standalone="no"?>
<!DOCTYPE svg PUBLIC "-//W3C//DTD SVG 1.1//EN" "http://www.w3.org/Graphics/SVG/1.1/DTD/svg11.dtd">
<svg width="100%" height="100%" viewBox="0 0 1024 1024" version="1.1" xmlns="http://www.w3.org/2000/svg" xmlns:xlink="http://www.w3.org/1999/xlink" xml:space="preserve" xmlns:serif="http://www.serif.com/" style="fill-rule:evenodd;clip-rule:evenodd;stroke-linejoin:round;stroke-miterlimit:1.41421;">
    <g id="image" transform="matrix(0.8,0,0,0.8,-25.3826,-47.532)">
        <g transform="matrix(1.05455,-0.0595732,0.0568606,1.00653,290.544,110.892)">
            <g id="cog1">
                <g id="bubble1">
                    <g transform="matrix(-0.646578,0.646578,-0.795788,-0.795788,1429.18,775.421)">
                        <path d="M507.72,538.558C507.72,538.558 550.169,595.008 534,638C527.422,655.49 446.235,642.817 463.751,630.091C509.769,596.658 507.72,538.558 507.72,538.558Z" style="fill:white;"/>
                    </g>
                    <g transform="matrix(0.957057,-0.173192,0.183388,1.0134,-94.6712,35.5898)">
                        <ellipse cx="504.992" cy="512.19" rx="207.599" ry="171.547" style="fill:white;"/>
                    </g>
                </g>
            </g>
        </g>
        <g transform="matrix(-0.539199,0.066229,0.0641626,0.522375,612.099,694.677)">
            <g id="cog2">
                <g id="bubble2">
                    <g transform="matrix(-0.646578,0.646578,-0.795788,-0.795788,1429.18,775.421)">
                        <path d="M507.72,538.558C507.72,538.558 550.169,595.008 534,638C527.422,655.49 446.235,642.817 463.751,630.091C509.769,596.658 507.72,538.558 507.72,538.558Z" style="fill:white;"/>
                    </g>
                    <g transform="matrix(0.957057,-0.173192,0.183388,1.0134,-94.6712,35.5898)">
                        <ellipse cx="504.992" cy="512.19" rx="207.599" ry="171.547" style="fill:white;"/>
                    </g>
                </g>
            </g>
        </g>
    </g>
</svg>
