<?xml version="1.0" encoding="UTF-8" standalone="no"?>
<!DOCTYPE svg PUBLIC "-//W3C//DTD SVG 1.1//EN" "http://www.w3.org/Graphics/SVG/1.1/DTD/svg11.dtd">
<svg width="100%" height="100%" viewBox="0 0 383 400" version="1.1" xmlns="http://www.w3.org/2000/svg" xmlns:xlink="http://www.w3.org/1999/xlink" xml:space="preserve" xmlns:serif="http://www.serif.com/" style="fill-rule:evenodd;clip-rule:evenodd;stroke-linejoin:round;stroke-miterlimit:1.41421;">
    <g transform="matrix(1,0,0,1,-80.6962,-539.261)">
        <g transform="matrix(0.8,0,0,0.8,-25.3826,-47.532)">
            <g id="gear2" transform="matrix(-0.611873,0,0,0.615868,725.656,674.163)">
                <path d="M671.206,106.993C610.021,92.781 546.361,92.781 485.176,106.993L480.271,254.169C455.269,263.909 431.882,277.324 410.891,293.966L280.148,224.598C237.167,270.136 205.337,324.91 187.133,384.66L312.971,462.468C308.96,488.85 308.96,515.681 312.971,542.062L187.133,619.871C205.337,679.621 237.167,734.394 280.148,779.932L410.891,710.565C431.882,727.206 455.269,740.621 480.271,750.361L485.176,897.538C546.361,911.75 610.021,911.75 671.206,897.538L676.111,750.361C701.112,740.621 724.5,727.206 745.491,710.565L876.234,779.932C919.215,734.394 951.044,679.621 969.249,619.871L843.411,542.062C847.421,515.681 847.421,488.85 843.411,462.468L969.249,384.66C951.044,324.91 919.215,270.136 876.234,224.598L745.491,293.966C724.5,277.324 701.112,263.909 676.111,254.169L671.206,106.993Z" style="fill:rgb(0,153,153);"/>
            </g>
        </g>
    </g>
</svg>
