<?xml version="1.0" encoding="UTF-8" standalone="no"?>
<!DOCTYPE svg PUBLIC "-//W3C//DTD SVG 1.1//EN" "http://www.w3.org/Graphics/SVG/1.1/DTD/svg11.dtd">
<svg width="100%" height="100%" viewBox="0 0 1024 1024" version="1.1" xmlns="http://www.w3.org/2000/svg" xmlns:xlink="http://www.w3.org/1999/xlink" xml:space="preserve" xmlns:serif="http://www.serif.com/" style="fill-rule:evenodd;clip-rule:evenodd;stroke-linejoin:round;stroke-miterlimit:1.41421;">
    <g transform="matrix(0.8,0,0,0.8,-73.7045,-4.86134)">
        <g id="bubble1" transform="matrix(1.18398,-0.0549293,0.0525837,1.13342,260.625,-24.5255)">
            <g transform="matrix(-1.22007,1.28062,-1.57267,-1.49815,2112.12,861.216)">
                <path d="M507.72,538.558C507.72,538.558 550.169,595.008 534,638C527.422,655.49 446.235,642.817 463.751,630.091C509.769,596.658 507.72,538.558 507.72,538.558Z" style="fill:white;"/>
            </g>
            <g transform="matrix(0.957057,-0.173192,0.183388,1.0134,-94.6712,35.5898)">
                <ellipse cx="504.992" cy="512.19" rx="207.599" ry="171.547" style="fill:white;"/>
            </g>
        </g>
    </g>
    <g transform="matrix(0.8,0,0,0.8,-25.3826,-47.532)">
        <g id="bubble2" transform="matrix(-0.529634,0.0713204,0.0690951,0.513108,614.665,688.276)">
            <g transform="matrix(-1.43611,1.43611,-1.76751,-1.76751,2420.09,922.671)">
                <path d="M507.72,538.558C507.72,538.558 517.47,551.523 525.844,569.759C534.944,589.574 542.42,615.612 534,638C527.422,655.49 446.235,642.817 463.751,630.091C509.769,596.658 507.72,538.558 507.72,538.558Z" style="fill:white;"/>
            </g>
            <g transform="matrix(1.00832,-0.18247,0.198888,1.09905,-115.197,9.17098)">
                <ellipse cx="504.992" cy="512.19" rx="207.599" ry="171.547" style="fill:white;"/>
            </g>
        </g>
    </g>
    <g transform="matrix(1.17972,0,0,1.24574,-112.074,-176.895)">
        <rect x="95" y="142" width="868" height="822" style="fill:none;"/>
    </g>
</svg>
